<?xml version="1.0" encoding="utf-8"?>
<svg version="1.1" xmlns="http://www.w3.org/2000/svg" viewBox="0 0 960 960" width="960" height="960">
  <!-- WhatsApp Icon Path (White) on transparent background -->
  <!-- Designed to be displayed on top of the #25D366 brandColor -->
  <path fill="#ffffff" d="M822.4,142.1C732.1,51.7,612,1.9,484.2,2C221.7,2.1,8,215.8,8,478.4c0,83.9,21.9,165.9,63.5,238L2,959.8l249.2-65.3c69.6,37.8,148.4,57.7,228.6,57.7h0.2c262.2,0,475.9-213.6,476.1-476.3C956.1,348.9,906.6,226.4,822.4,142.1z M480.2,871.9h-0.2c-71,0-140.7-19.1-201.7-55.2l-14.4-8.6l-149.9,39.3l40-146.1l-9.4-15c-39.7-63.1-60.6-136.2-60.6-211c0-218.4,177.8-396.2,396.4-396.2c105.8,0.1,205.3,41.4,280.1,116.2c74.8,74.9,116,174.4,115.9,280.2C876.1,694.1,698.6,871.9,480.2,871.9z M697.5,572.6c-11.9-6-70.5-34.8-81.4-38.8c-10.9-4-18.8-6-26.7,6c-7.9,11.9-30.7,38.8-37.6,46.8c-6.9,8-13.9,9-25.8,3c-11.9-6-50.3-18.6-95.8-59.2c-35.4-31.6-59.3-70.7-66.2-82.7c-6.9-11.9-0.7-18.4,5.3-24.3c5.3-5.3,11.9-13.9,17.8-20.9c6-7,7.9-11.9,11.9-19.9c4-7.9,2-14.9-1-20.9c-3-6-26.7-64.4-36.6-88.1c-9.6-23.2-19.5-20.1-26.7-20.4c-6.9-0.3-14.9-0.3-22.8-0.3c-7.9,0-20.8,3-31.7,14.9c-10.9,11.9-41.6,40.7-41.6,99.2s42.6,115,48.5,123s83.8,128,203.2,179.6c28.4,12.3,50.6,19.6,67.8,25.2c28.6,9.1,54.6,7.8,75,4.7c22.9-3.5,70.5-28.8,80.4-56.6c9.9-27.8,9.9-51.6,6.9-56.6C716.4,578.6,708.4,575.6,697.5,572.6z"/>
</svg>
